# xmcd CD database file
# Copyright (C) 1996 Ti Kan
#
# Track frame offsets:
#	150
#	12657
#	24275
#	37805
#	51352
#	63957
#	76960
#	89650
#	102610
#	115957
#	128095
#	141465
#	155547
#	170122
#	181967
#	193447
#	206567
#	218662
#	229442
#	243357
#	258405
#	270930
#	280575
#	294815
#	308355
#
# Disc length: 4399 seconds
#
# Revision: 1
# Processed by: cddbd v1.4b41PL1 Copyright (c) Steve Scherf et al.
# Submitted via: EasyCD 2.21 - (C) 1996 Greg Leichner
#
DISCID=6a112d19
DTITLE=Tex Ritter - Collectors Series
DYEAR=1900
DGENRE=
TTITLE0=Jingle Jangle Jingle
TTITLE1=I've Done The Best I Could
TTITLE2=There's A New Moon Over My Shoulder
TTITLE3=Have I Stayed Away Too Long
TTITLE4=I'm Wastin' My Tears On You
TTITLE5=Jealous Heart
TTITLE6=We Live In Two Different Worlds
TTITLE7=You Will HAve To Pay (For Your Yesterday)
TTITLE8=Boll Weevil Song
TTITLE9=You Two-Timed Me One Time Too Often
TTITLE10=Blood On The Saddle
TTITLE11=Bad Brahma Bull
TTITLE12=Rye Whiskey
TTITLE13=Green Grow The Lilacs
TTITLE14=Have I Told You Lately That I Love You
TTITLE15=When You Leave,Don't Slam The Door
TTITLE16=Rock And Rye
TTITLE17=Big Rock Candy Mountain
TTITLE18=Deck Of Cards
TTITLE19=Daddy's Lost Letter
TTITLE20=High Noon (Do Not Forsake Me)
TTITLE21=Buffalo Dream
TTITLE22=I Dreamed Of A Hillbilly Heaven
TTITLE23=Just Beyond The Moon
TTITLE24=The Americans (A Canadian's Opinion)
EXTD=
EXTT0=
EXTT1=
EXTT2=
EXTT3=
EXTT4=
EXTT5=
EXTT6=
EXTT7=
EXTT8=
EXTT9=
EXTT10=
EXTT11=
EXTT12=
EXTT13=
EXTT14=
EXTT15=
EXTT16=
EXTT17=
EXTT18=
EXTT19=
EXTT20=
EXTT21=
EXTT22=
EXTT23=
EXTT24=
PLAYORDER=
